<svg width="77" height="31" viewBox="0 0 77 31" fill="none" xmlns="http://www.w3.org/2000/svg">
<rect width="19.5783" height="19.5783" fill="url(#paint0_linear)"/>
<rect x="5.26227" y="5.26221" width="24.928" height="24.928" fill="#646464" stroke="#006D4D"/>
<path d="M10.5828 25.9279H14.9076L10.5828 22.4072V25.9279Z" fill="white"/>
<path d="M14.1651 15.0591V18.4014L23.301 25.9281H27.5153L14.1651 15.0591Z" fill="white"/>
<path d="M13.0781 11.8257H19.3664C20.0719 11.8243 20.7509 12.1176 21.2636 12.645C21.7762 13.1725 22.0833 13.8939 22.1215 14.6606C22.1596 15.4272 21.926 16.1805 21.4688 16.7652C21.0116 17.3499 20.3656 17.7213 19.6642 17.8029L22.1204 19.8222C23.1235 19.1673 23.9019 18.173 24.3368 16.9913C24.7717 15.8096 24.8392 14.5054 24.5289 13.278C24.2186 12.0507 23.5476 10.9676 22.6184 10.1943C21.6893 9.42099 20.553 8.99999 19.3833 8.99561L10.5828 8.99561V20.6656L16.9881 25.9282H21.2024L13.0781 19.3453V11.8257Z" fill="white"/>
<path d="M41.3171 12.2316L39.1565 9.2896C39.0205 9.29731 38.8841 9.29731 38.7481 9.2896H36.3588V12.2161H34.3942V2.19233H38.7481C39.5688 2.17474 40.3843 2.32134 41.1414 2.62259C41.7805 2.87651 42.3252 3.30571 42.7057 3.85521C43.0792 4.42687 43.2681 5.08988 43.2489 5.76229C43.2669 6.44915 43.0647 7.12501 42.669 7.70037C42.2602 8.26296 41.676 8.68994 40.9985 8.92136L43.449 12.22L41.3171 12.2316ZM40.6064 4.28547C40.0388 3.9061 39.3507 3.72403 38.6582 3.76993H36.3588V7.77014H38.6582C39.3519 7.81574 40.0407 7.63072 40.6064 7.24686C40.8296 7.06416 41.0056 6.83534 41.121 6.57798C41.2364 6.32062 41.2881 6.04157 41.2721 5.76229C41.2887 5.48407 41.2372 5.20598 41.1218 4.94978C41.0063 4.69358 40.8299 4.46621 40.6064 4.28547Z" fill="white"/>
<path d="M54.3296 8.98335H47.9949C48.0886 9.52128 48.401 10.0028 48.8648 10.3245C49.3742 10.6645 49.9865 10.8373 50.6088 10.8168C51.0149 10.8294 51.4193 10.7622 51.7967 10.6194C52.1742 10.4767 52.5164 10.2615 52.8021 9.98727L53.815 11.092C53.446 11.5071 52.9726 11.8271 52.4386 12.0223C51.8403 12.2389 51.2041 12.3455 50.5639 12.3362C49.7526 12.3526 48.9493 12.181 48.2236 11.8362C47.5708 11.5228 47.0276 11.0368 46.6593 10.4369C46.2862 9.82076 46.0957 9.12025 46.108 8.40967C46.0953 7.70471 46.2799 7.00918 46.643 6.39407C46.9917 5.80542 47.5066 5.3208 48.1297 4.99477C48.7888 4.65601 49.5286 4.48382 50.278 4.49474C51.0136 4.48268 51.7398 4.65232 52.3855 4.98702C52.9988 5.31007 53.5019 5.79292 53.8354 6.37856C54.1934 7.01608 54.3734 7.73003 54.3582 8.45231C54.3582 8.5686 54.3459 8.74302 54.3296 8.98335ZM48.7423 6.4367C48.3212 6.78431 48.0505 7.26759 47.9826 7.79336H52.5611C52.4995 7.26618 52.2298 6.78071 51.8061 6.43475C51.3825 6.0888 50.8364 5.90805 50.278 5.92893C49.7188 5.91104 49.1722 6.08902 48.7423 6.42895V6.4367Z" fill="white"/>
<path d="M63.2659 5.29696C63.8948 5.83446 64.2093 6.64845 64.2093 7.73895V12.2314H62.4286V11.3089C62.1853 11.6543 61.8401 11.924 61.4361 12.0841C60.4246 12.4447 59.3079 12.435 58.3035 12.057C57.8791 11.8825 57.5142 11.5993 57.2497 11.2391C57.0039 10.888 56.8758 10.4745 56.8822 10.053C56.8723 9.7357 56.941 9.42062 57.0829 9.13314C57.2248 8.84565 57.4358 8.59381 57.699 8.39789C58.2381 7.98314 59.0836 7.77383 60.2435 7.77383H62.3306V7.66142C62.3453 7.43283 62.3076 7.20394 62.2202 6.99048C62.1327 6.77703 61.9976 6.58408 61.8241 6.42493C61.396 6.11075 60.8608 5.95755 60.3211 5.99467C59.8663 5.99597 59.4144 6.06396 58.9815 6.19623C58.5777 6.31476 58.2008 6.50409 57.8706 6.7544L57.1313 5.45201C57.5839 5.11805 58.0996 4.86938 58.6506 4.71941C59.2643 4.55381 59.8996 4.47159 60.5376 4.47521C61.7261 4.48684 62.6369 4.7543 63.2659 5.29696ZM61.5423 10.7236C61.9029 10.5261 62.179 10.2147 62.3224 9.84371V8.94444H60.3701C59.281 8.94444 58.7364 9.28425 58.7364 9.96387C58.7313 10.1151 58.7659 10.2652 58.8372 10.4005C58.9086 10.5359 59.0143 10.6522 59.1448 10.7391C59.4799 10.9472 59.8764 11.0477 60.2762 11.0259C60.72 11.0333 61.1576 10.9261 61.5423 10.7158V10.7236Z" fill="white"/>
<path d="M68.1385 1.5874H70.0499V12.2314H68.1589L68.1385 1.5874Z" fill="white"/>
<path fill-rule="evenodd" clip-rule="evenodd" d="M76.285 19.5797C75.9465 18.998 75.4408 18.5194 74.8269 18.1998C74.185 17.8649 73.4641 17.6902 72.7316 17.692C72.2367 17.6867 71.7455 17.7736 71.2858 17.9479C70.8507 18.1239 70.4617 18.3885 70.1463 18.7231V14.8159H68.2594V25.4599H70.0442V24.4676C70.3512 24.8278 70.7486 25.1091 71.2001 25.2854C71.6823 25.4715 72.1989 25.5638 72.7194 25.5568C73.4541 25.5696 74.1798 25.4028 74.8269 25.0723C75.4421 24.7525 75.948 24.2723 76.285 23.6885C76.6448 23.057 76.8263 22.348 76.8118 21.6302C76.8273 20.9148 76.6457 20.208 76.285 19.5797ZM74.9003 21.6302C74.9003 22.2697 74.6599 22.8882 74.2224 23.3745C73.9995 23.5893 73.7318 23.7575 73.4364 23.8683C73.141 23.9791 72.8244 24.0301 72.507 24.0179C72.0785 24.0231 71.656 23.9215 71.2817 23.7234C70.9174 23.5248 70.6189 23.2335 70.42 22.8822C70.213 22.4906 70.1052 22.0586 70.1052 21.6205C70.1052 21.1825 70.213 20.7504 70.42 20.3588C70.6179 20.0079 70.9167 19.7176 71.2817 19.5216C71.6554 19.322 72.0783 19.2204 72.507 19.227C72.8255 19.2176 73.1426 19.2713 73.4379 19.3848C73.7333 19.4983 74.0005 19.6689 74.2224 19.8859C74.6599 20.3723 74.9003 20.9908 74.9003 21.6302ZM55.608 15.345L52.1159 25.3843H50.0289L47.4149 17.9537L44.7642 25.3843H42.6649L39.1566 15.345H41.1987L43.829 22.9733L46.5613 15.345H48.3747L51.0499 23.016L53.7496 15.345H55.608ZM64.8405 21.9509H58.5098C58.6035 22.4888 58.9159 22.9703 59.3798 23.292C59.8891 23.632 60.5015 23.8048 61.1238 23.7843C61.5293 23.7973 61.9332 23.7303 62.31 23.5875C62.6869 23.4447 63.0284 23.2293 63.3129 22.9548L64.3258 24.0595C63.9584 24.4745 63.4863 24.7945 62.9535 24.9898C62.2723 25.2253 61.5486 25.3302 60.8243 25.2982C60.1001 25.2663 59.3897 25.0982 58.7345 24.8037C58.0825 24.4892 57.5395 24.0035 57.1702 23.4044C56.797 22.7883 56.6065 22.0878 56.6188 21.3772C56.6074 20.6719 56.7934 19.9763 57.1579 19.3616C57.5054 18.772 58.0206 18.2871 58.6446 17.9623C59.3037 17.6235 60.0435 17.4513 60.7929 17.4623C61.5285 17.4502 62.2548 17.6198 62.9004 17.9545C63.5126 18.279 64.0154 18.7615 64.3503 19.3461C64.7084 19.9836 64.8884 20.6975 64.8731 21.4198C64.8731 21.5361 64.8609 21.7105 64.8405 21.9509ZM59.2573 19.4042C58.8349 19.7514 58.5629 20.2347 58.4935 20.7609H63.072C63.0123 20.2337 62.7437 19.7477 62.3205 19.4015C61.8973 19.0553 61.3512 18.8747 60.7929 18.8964C60.2336 18.8778 59.6867 19.0559 59.2573 19.3965V19.4042Z" fill="url(#paint1_linear)"/>
<defs>
<linearGradient id="paint0_linear" x1="0" y1="9.78914" x2="19.5786" y2="9.78914" gradientUnits="userSpaceOnUse">
<stop stop-color="#31D8FF"/>
<stop offset="0.15" stop-color="#30CDFF"/>
<stop offset="0.4" stop-color="#2CAFFF"/>
<stop offset="0.74" stop-color="#277FFF"/>
<stop offset="1" stop-color="#2255FF"/>
</linearGradient>
<linearGradient id="paint1_linear" x1="92.3354" y1="20.1073" x2="39.1566" y2="20.1073" gradientUnits="userSpaceOnUse">
<stop stop-color="#31D8FF"/>
<stop offset="0.15" stop-color="#30CDFF"/>
<stop offset="0.4" stop-color="#2CAFFF"/>
<stop offset="0.74" stop-color="#277FFF"/>
<stop offset="1" stop-color="#2255FF"/>
</linearGradient>
</defs>
</svg>
